G04 MADE WITH FRITZING*
G04 WWW.FRITZING.ORG*
G04 DOUBLE SIDED*
G04 HOLES PLATED*
G04 CONTOUR ON CENTER OF CONTOUR VECTOR*
%ASAXBY*%
%FSLAX23Y23*%
%MOIN*%
%OFA0B0*%
%SFA1.0B1.0*%
%ADD10C,0.075000*%
%ADD11C,0.078000*%
%ADD12C,0.080000*%
%ADD13C,0.074000*%
%ADD14R,0.078000X0.078000*%
%ADD15R,0.080000X0.080000*%
%ADD16C,0.024000*%
%LNCOPPER1*%
G90*
G70*
G54D10*
X781Y1048D03*
X1081Y1048D03*
X783Y1157D03*
X1083Y1157D03*
G54D11*
X317Y1169D03*
X217Y1169D03*
X117Y1169D03*
G54D12*
X638Y1130D03*
X501Y1130D03*
G54D11*
X1004Y140D03*
X1104Y140D03*
X1204Y140D03*
X1304Y140D03*
X818Y136D03*
X718Y136D03*
X618Y136D03*
X518Y136D03*
X418Y136D03*
X318Y136D03*
X218Y136D03*
X118Y136D03*
G54D10*
X1037Y526D03*
X1293Y526D03*
X1037Y703D03*
X1293Y703D03*
X1037Y526D03*
X1293Y526D03*
X1037Y703D03*
X1293Y703D03*
X635Y525D03*
X891Y525D03*
X635Y702D03*
X891Y702D03*
X635Y525D03*
X891Y525D03*
X635Y702D03*
X891Y702D03*
X233Y524D03*
X489Y524D03*
X233Y702D03*
X489Y702D03*
X233Y524D03*
X489Y524D03*
X233Y702D03*
X489Y702D03*
G54D13*
X114Y876D03*
X114Y776D03*
X114Y676D03*
X114Y576D03*
X114Y476D03*
X114Y376D03*
X214Y926D03*
X314Y926D03*
X414Y926D03*
X514Y926D03*
X614Y926D03*
X559Y811D03*
X659Y811D03*
X714Y926D03*
X814Y926D03*
X914Y926D03*
X1014Y926D03*
X1114Y926D03*
X1214Y926D03*
X1314Y926D03*
X1314Y326D03*
X1214Y326D03*
X1114Y326D03*
X1014Y326D03*
X914Y326D03*
X814Y326D03*
X714Y326D03*
X614Y326D03*
X514Y326D03*
X414Y326D03*
X314Y326D03*
X214Y326D03*
G54D14*
X317Y1169D03*
G54D15*
X638Y1130D03*
G54D16*
X41Y1169D02*
X87Y1169D01*
D02*
X41Y136D02*
X41Y1169D01*
D02*
X88Y136D02*
X41Y136D01*
D02*
X214Y957D02*
X217Y1139D01*
D02*
X218Y235D02*
X413Y235D01*
D02*
X413Y235D02*
X414Y295D01*
D02*
X218Y166D02*
X218Y235D01*
D02*
X1204Y215D02*
X1204Y140D01*
D02*
X614Y215D02*
X1204Y215D01*
D02*
X614Y295D02*
X614Y215D01*
D02*
X1304Y257D02*
X716Y257D01*
D02*
X716Y257D02*
X715Y295D01*
D02*
X1304Y170D02*
X1304Y257D01*
D02*
X216Y106D02*
X212Y58D01*
D02*
X212Y58D02*
X1004Y58D01*
D02*
X1004Y58D02*
X1004Y110D01*
D02*
X1082Y1077D02*
X1082Y1128D01*
D02*
X1053Y1048D02*
X914Y1048D01*
D02*
X914Y1048D02*
X914Y957D01*
D02*
X638Y1157D02*
X638Y1161D01*
D02*
X754Y1157D02*
X638Y1157D01*
D02*
X501Y1048D02*
X501Y1099D01*
D02*
X753Y1048D02*
X501Y1048D01*
D02*
X410Y1015D02*
X314Y1015D01*
D02*
X410Y1207D02*
X410Y1015D01*
D02*
X314Y1015D02*
X314Y957D01*
D02*
X638Y1207D02*
X410Y1207D01*
D02*
X638Y1161D02*
X638Y1207D01*
D02*
X314Y895D02*
X314Y702D01*
D02*
X314Y702D02*
X261Y702D01*
D02*
X517Y702D02*
X606Y702D01*
D02*
X919Y703D02*
X1008Y703D01*
D02*
X814Y410D02*
X232Y410D01*
D02*
X232Y410D02*
X233Y496D01*
D02*
X814Y357D02*
X814Y410D01*
D02*
X914Y454D02*
X635Y454D01*
D02*
X635Y454D02*
X635Y497D01*
D02*
X914Y357D02*
X914Y454D01*
D02*
X1017Y357D02*
X1034Y497D01*
G04 End of Copper1*
M02*