; NON-PLATED HOLES START AT T1
; THROUGH (PLATED) HOLES START AT T100
M48
INCH
T100C0.038000
T101C0.040000
T102C0.035000
%
T100
X012042Y001398
X013042Y001398
X004177Y001359
X005177Y001359
X006177Y001359
X001170Y011689
X007177Y001359
X002170Y011689
X008177Y001359
X010042Y001398
X003170Y011689
X001177Y001359
X011042Y001398
X002177Y001359
X003177Y001359
T101
X008138Y009263
X005006Y011303
X001138Y003763
X001138Y008763
X012138Y009263
X010138Y009263
X013138Y009263
X011138Y009263
X001138Y006763
X002138Y003263
X004138Y003263
X006138Y003263
X001138Y004763
X003138Y003263
X005138Y003263
X007138Y003263
X009138Y003263
X006384Y011303
X008138Y003263
X010138Y003263
X012138Y003263
X001138Y007763
X011138Y003263
X013138Y003263
X006588Y008112
X005588Y008112
X001138Y005763
X006138Y009263
X004138Y009263
X002138Y009263
X009138Y009263
X007138Y009263
X005138Y009263
X003138Y009263
T102
X004887Y007015
X012929Y005256
X002328Y005243
X007813Y010484
X010813Y010484
X012929Y007028
X002328Y007015
X006349Y005253
X007826Y011570
X008908Y005253
X010370Y005256
X010826Y011570
X006349Y007024
X008908Y007024
X004887Y005243
X010370Y007028
T00
M30
